<?xml version="1.0" encoding="utf-8"?>
<!-- Generator: Adobe Illustrator 19.2.1, SVG Export Plug-In . SVG Version: 6.00 Build 0)  -->
<svg version="1.1" id="layer" xmlns="http://www.w3.org/2000/svg" xmlns:xlink="http://www.w3.org/1999/xlink" x="0px" y="0px"
	 viewBox="0 0 652 652" style="enable-background:new 0 0 652 652;" xml:space="preserve">
<style type="text/css">
	.st0{fill:#8DC21F;}
	.st1{fill:#FFF000;}
	.st2{fill:#0075C9;}
</style>
<path class="st0" d="M549.2,379.5v8.7c0,2.8-0.9,5.1-2.8,6.8c-2.4,2.3-5.4,3.2-9.1,2.6c-3.2-0.5-7-2.9-9.6-7.1v-94
	c3-4,6.2-6.3,9.6-6.8c3.7-0.5,6.7,0.3,9.1,2.6c1.9,1.7,2.8,4,2.8,6.9V379.5z M561.6,271.3c-3.8-2.6-8.6-3.9-14.3-3.9
	c-8.2,0-14.7,3-19.5,9.1v-45.8h-22.8v130.2c-0.2,3.8-1.7,7.1-5.8,8.3c-12.1,1.9-21.4,12.3-21.4,25c0,14,11.3,25.3,25.3,25.3
	c6.2,0,12-2.3,16.4-6h0c0.1-0.1,0.1-0.1,0.2-0.2c0.6-0.6,1.2-1.1,1.8-1.7c0.9-0.7,1.9-1.3,3.1-1.3c1.5,0,2.6,0.3,3.9,1.4
	c4.9,5.6,11.3,8.4,18.9,8.4c0.3,0,0.6-0.1,0.9-0.1c5.4-0.1,10-1.4,13.6-3.9c3.8-2.6,6.5-5.6,8-8.8c1.4-3.1,2.1-8.3,2.2-15.6
	c0-0.3,0-0.7,0-1v-93.8c0-7.9-0.8-13.4-2.3-16.6C568.1,276.8,565.4,273.9,561.6,271.3 M606.3,276.3v-8h-22.5v150.3h22.5V296.3
	c3.3-4,6.7-6.3,10.1-6.8c3.8-0.5,7,0.3,9.6,2.6v-25.2C617.9,266.9,611.3,270,606.3,276.3"/>
<path class="st1" d="M515.9,394.2c0,7.2-5.8,13-13,13c-7.2,0-13-5.8-13-13c0-7.2,5.8-13,13-13C510.1,381.2,515.9,387,515.9,394.2"/>
<path class="st2" d="M93.6,386.8c0,9.3-3.2,17.2-9.7,23.8c-6.5,6.6-14.4,9.9-23.6,9.9c-9.3,0-17.3-3.3-24.1-9.8
	c-6.8-6.6-10.1-14.5-10.1-23.8v-85.3c0-9.3,3.3-17.2,9.9-23.8c6.6-6.5,14.6-9.8,23.9-9.8c9.3,0,17.3,3.3,23.9,9.8
	c6.6,6.5,9.9,14.5,9.9,23.7v53.2H71v-53.9c0-3-1.1-5.5-3.3-7.7c-2.2-2.2-4.8-3.3-7.8-3.3c-3.1,0-5.8,1.1-8,3.2
	c-2.2,2.1-3.3,4.7-3.3,7.9v86.7c0,3.2,1.1,5.8,3.3,7.9c2.2,2.1,4.9,3.1,8,3.1c3,0,5.6-1.1,7.8-3.3c2.2-2.2,3.3-4.8,3.3-7.9v-8.5
	h22.6V386.8z M173.5,378.9h-22.6v8.5c0,3.2-1.1,5.9-3.3,8c-2.2,2.1-4.9,3.2-8,3.2c-3,0-5.6-1.1-7.8-3.3c-2.2-2.2-3.3-4.8-3.3-7.8
	v-23.6h44.9v-62.4c0-9.3-3.3-17.2-9.9-23.7c-6.6-6.5-14.5-9.8-23.9-9.8s-17.3,3.3-23.9,9.8c-6.6,6.6-9.9,14.5-9.9,23.8v85.3
	c0,9.5,3.3,17.4,10,23.9c6.7,6.5,14.7,9.7,24.2,9.7c9.3,0,17.2-3.3,23.7-9.9c6.5-6.6,9.7-14.5,9.7-23.8V378.9z M128.6,342.9v-42.1
	c0-3,1.1-5.5,3.3-7.7c2.2-2.2,4.8-3.3,7.8-3.3c3.2,0,5.8,1,8,3.1c2.2,2.1,3.3,4.7,3.3,7.9v42.1H128.6z M300.8,268h-22.6v119.6
	c0,3.1-1.1,5.8-3.3,7.9c-2.2,2.1-4.8,3.1-7.9,3.1c-3.1,0-5.8-1.1-8.1-3.1c-2.2-2.1-3.4-4.7-3.4-7.9V268h-22.6v119.6
	c0,3.1-1.1,5.8-3.3,7.9c-2.2,2.1-4.9,3.1-8,3.1c-3,0-5.6-1.1-7.7-3.3c-2.2-2.2-3.3-4.8-3.3-7.8V268H188v118.9
	c0,9.3,3.4,17.2,10.1,23.8c6.7,6.6,14.7,9.9,24,9.9c4.2,0,8.6-1.2,13.3-3.6c4.7-2.4,7.7-5.4,9.1-9.1c1.4,3.7,4.6,6.8,9.7,9.2
	c4.4,2.3,8.8,3.4,13.1,3.4c9.3,0,17.2-3.3,23.7-9.9c6.5-6.6,9.7-14.5,9.7-23.8V268z M382,378.9h-22.6v8.5c0,3.2-1.1,5.9-3.3,8
	c-2.2,2.1-4.9,3.2-8,3.2c-3,0-5.6-1.1-7.8-3.3c-2.2-2.2-3.3-4.8-3.3-7.8v-23.6H382v-62.4c0-9.3-3.3-17.2-9.9-23.7
	c-6.6-6.5-14.6-9.8-23.9-9.8c-9.3,0-17.3,3.3-23.9,9.8c-6.6,6.6-9.9,14.5-9.9,23.8v85.3c0,9.5,3.3,17.4,10,23.9
	c6.7,6.5,14.7,9.7,24.2,9.7c9.3,0,17.2-3.3,23.6-9.9c6.5-6.6,9.7-14.5,9.7-23.8V378.9z M337,342.9v-42.1c0-3,1.1-5.5,3.3-7.7
	c2.2-2.2,4.8-3.3,7.8-3.3c3.1,0,5.8,1,8,3.1c2.2,2.1,3.3,4.7,3.3,7.9v42.1H337z M460.7,280.5c1.6,3.2,2.3,8.8,2.3,16.6V391
	c0,0.4,0,0.7,0,1c-0.1,7.3-0.8,12.5-2.2,15.6c-1.5,3.3-4.1,6.2-8,8.8c-3.3,2.3-7.4,3.5-12.1,3.9c-0.7,0.1-1.5,0.1-2.5,0.1
	c-0.9,0-1.8,0-2.6-0.1c-0.1,0-0.2,0-0.4-0.1c-3.7-0.3-7-1.4-10-3.2c-2.4-1.4-4.7-3.4-6.8-5.8v7.9h-22.6v-57.5c0-0.1,0-0.2,0-0.3
	V231.1h0h22.6h0.2v45.8c4.9-6.1,11.4-9.1,19.5-9.1c5.7,0,10.5,1.3,14.3,3.9C456.4,274.4,459.1,277.3,460.7,280.5 M440.5,299.5
	c0-3.3-1.2-5.9-3.6-7.6c-2.4-1.7-5.2-2.4-8.5-1.8c-3.4,0.5-6.7,2.8-9.8,6.8V391c3.1,4,6.3,6.3,9.8,6.9c3.2,0.5,6.1-0.1,8.5-1.9
	c2.4-1.7,3.6-4.3,3.6-7.6V299.5z"/>
</svg>
