<svg xmlns="http://www.w3.org/2000/svg" viewBox="0 0 1628.51 337.3"><defs><style>.cls-1{fill:#02fdfd;}.cls-2{fill:#ff03fd;}.cls-3{fill:#fff;}</style></defs><title>Logo-QuebraDev</title><g id="CIANO"><path class="cls-1" d="M1136.43,504.41l1.44-.72c1-.48,1.45-1,1.45-1.44q.72-9,.9-14.62c0-.89.06-1.76.1-2.62l3.69-5.11v65.31l3.25-1.81,3.74-73.16,27.45-37.93-24.33-17.25-26.73-18.94-57.87,20.49L1044.33,426l-2.68,6.84-1.06-5.46-28.94,10.76,18.9,20.35,3.4-1-10.48,71-9.09,75.11L999.88,629l.31-114.69,24.14-12.77-23.64-16.23,2-62.79,4.79-52.91-51.8,9.19-23.55,54.05-1,6.15-44,104.67-21.91,11.88L854,537.69l-20.3-27.16,60.69-62.13L934.06,414l-42.84-31.8-88.56,23.06-43.39,9.17L763.8,411l-29.49-24.38-3.07,0-17.15-14.22L599.7,411.67l26.36,14.16,16.69-3.51V423l-9.16,64.2L626,549.83l-11.85-8.26L561.4,563.39l3.82-45.06,2.25-21.85,22.44-13.11,38.42-22.07-21.94-16.24-32,14.87-1,.35,7.24-42.35,13.28-5.2L638.81,392l-27.4-17.57L510.68,415.63l27.75,18.59,4.42-1.73-8.92,46.8L503,494.83l24.33,17.25L526,519.25l-11.2,63.87-45.48,22.31,1.54-9.75,10.89-4.17-8.59-10.86,3.61-22.88,25.65-155.39-35.23-14.12L443.86,534.09l-4.86,41L387.25,593.8l18.44-108.26,6.55-44.74L377,426.35,371.84,460l-22.26-.35-35.11-49.25L288,378.8l-27.48,26.1,6.52,6.44-32.58,82.08-6.06,14L226.69,504l-22,31.19,26.62,56.47,19,37.07c-3.19.48-6.25,1.06-9.2,1.76a34,34,0,0,0-5.11,1.74L203.65,640l-15,2.83L181,673.89a44.5,44.5,0,0,0,5.79-1.74q5.1-1.74,7.83-2.44,1.37-.35,8-1.58t14.14-3q8.86-1.77,19.08-3.87,15.68-2.14,28.63-4.27l20.62-3.37q9.72-1.59,12.1-2.29a36.27,36.27,0,0,1,8-1.08l6.18-.38a11.85,11.85,0,0,1,2.11.61l.74.7c.74.7,1.12,1.17,1.12,1.42L316.44,693c.24,0,.54-.25.89-.74a1.52,1.52,0,0,1,1.24-.76c0-.48.12-2.17.41-5.06s.52-5.2.72-6.89q.32-1.46.75-5.43T321.5,666c.4-2.78.76-5.43,1.05-8s.54-4.41.75-5.62l1.81,0a39.81,39.81,0,0,0,.84,4.49,22.65,22.65,0,0,0,1.58,5.19l.74.7.74.71,1.77-1.5c.45-1,.82-3.15,1.09-6.53s.64-5.19,1.12-5.44c0-.24.44-.54,1.34-.91h0v0h0l14.14-28q-9.22-.63-17.75-.92-7.51-.29-15.18-.42t-12.46.25l7.73-19.49,57.81-119.91L350.77,597.1l11.31,8.12-6.81,3.11,29.47,19.95,50.71-19.42-3.57,29.36,29.78,15.51,7-44.43,29.9,12.6c.06.87.11,1.8.16,2.8q.36,6.67.55,14.26t.54,14.26q.36,6.67.72,9.2a33.69,33.69,0,0,0,.36,3.79c.24,1.81.42,3.61.54,5.42s.3,3.48.54,5a25.81,25.81,0,0,1,.37,3.43,11.35,11.35,0,0,0,.72,2.89c.48,1.44,1,2.28,1.44,2.53l2.53-9.75V625.47l5.6,2.36,0,0c0,.47.09.92.14,1.4.24,2.17.48,4.15.73,6a13.64,13.64,0,0,0,.72,3.43c0,.72.05,1.74.18,3.07s.3,2.7.54,4.15.42,2.82.54,4.15.18,2.22.18,2.71a4.77,4.77,0,0,1,.9-2.17,4.91,4.91,0,0,0,.91-2.17q.72-.72,1.62-4.69a31.86,31.86,0,0,0,.9-5,29,29,0,0,1,.37-3.25c.23-1.69.41-3.43.54-5.24s.3-3.54.54-5.23c.14-1,.24-1.81.3-2.39l3.12-1.83a2.45,2.45,0,0,1,.55-.11l-.27-.06,42.88-25.07,55.76-27.92-3.56,29.3-29.52,26.45L623.26,636l30.56-24.41,113.47-89.42-17.55,98,29.78,15.85,19.33-92.78.06,0a4.18,4.18,0,0,1,1.08.76v27.16h3.25l.72-4.53a38.56,38.56,0,0,0,.54-4.15c.12-1.5.18-2.89.18-4.14a30,30,0,0,0,1.45-7,70,70,0,0,0,.72-7.36h4.33v82.24l1.81,1.51c0-.76.12-2.21.36-4.34s.41-4.34.54-6.6.3-4.47.54-6.6a26.86,26.86,0,0,1,.72-4.34q0-3.41.54-11.89t1.09-18.1q.54-9.63,1.08-17.92.14-2.1.24-3.87l.84,1.31c2.53,4,4.76,7.42,6.72,10.36a75.6,75.6,0,0,1,4,6.46q2.07,3.06,7.24,11.39T847.37,601q5.34,9,9.65,16.49t4.67,9.52l12.06-20.73,21.56-3.7,22.93-43.81,25.52-14.06,0,.29c.31,2.87.77,4.75,1.4,5.63a31.44,31.44,0,0,0,.92,3.7c.5,1.75.77,2.74.81,3l1.23.91,1.43-.22a8.7,8.7,0,0,1,.64-3,8.6,8.6,0,0,0,.54-3.74,27.73,27.73,0,0,1,.59-5.74c.44-2.74.74-4.56.9-5.48l.8-.44,1-.15,1.07-.16a1.07,1.07,0,0,1,.47.66l.1.71a52.36,52.36,0,0,0,1.94,6.83,56.6,56.6,0,0,1,1.89,6.47l1.42-.22a13.79,13.79,0,0,1,.41-3.34,12.81,12.81,0,0,0,.41-3.35,6.42,6.42,0,0,0,.82-3c.15-1.49.68-2.41,1.59-2.8l2.48,3.56,5.52,79.52,27.34,5.23-2.38,4.17,36.9,9,59.81-93.51,42.55-58.79ZM307.05,534.25l-33.38,64-17.27-34q-3.1-5.43-5.87-11.56-2.78-5.1-5.36-11.23t-5-11.91l19.07-5.92,21.48-57.45,10.74-29.06,40.89,46.82ZM821.26,433.84l.27-.06c0,1.22.08,2.92.17,5.1q.18,4.33.54,9.2t.9,9.39c.36,3,.67,5,.9,6a18.22,18.22,0,0,0,.91,4.51,20.58,20.58,0,0,1,.9,3.79c0-.48.06-1.38.18-2.71s.3-2.7.54-4.15.42-2.83.54-4.15.18-2.35.18-3.07a23.68,23.68,0,0,0,.72-4.33c.25-2.17.49-4.51.73-7s.42-4.93.54-7.22.18-3.91.18-4.87h1.8a14.55,14.55,0,0,0,.91,4.15,33.54,33.54,0,0,0,1.62,4.15,5.75,5.75,0,0,0,.9,1.8,5.61,5.61,0,0,1,.91,1.81q.36,1.08,1.8.36l1.45-.72-.69-15.61,35.91-7.88Q862.9,435,851.7,447q-9.48,10.31-20,21.62t-18.3,19.9l-4.09.37ZM674.1,415.64l38.16-8.08L675,456.24l-1,1,7.26-38.94ZM656.26,565.19l5.89-40L688,517.91q5.1-1.74,10.56-3.14,4.75-1.38,10.55-3t11.58-3.32ZM776.45,471l-5.6,31.33L752,484.76l-7.47,5.16L728,475.7l-43.95,10.84,65.79-64.88.08-.07,20.53,23.14,10.57-.75Zm25.27,58.53.6.88-.81.11Zm76,38.08-1.86,4.88-6.75-10.73ZM964,453.42l1,49.47-28.23,13.82Zm93.35,89.84,8-93.53,1.48-.41,2.59.94a9.55,9.55,0,0,0,3.07.72v53.43a14.13,14.13,0,0,1,1.08-4,14.26,14.26,0,0,0,1.09-4,21.35,21.35,0,0,0,1.26-5.78,21,21,0,0,1,1.26-5.77c0-1,.12-2.83.36-5.6s.42-5.59.54-8.48.3-5.6.55-8.12.36-4.27.36-5.24c.23,0,.54-.3.9-.9a1.52,1.52,0,0,1,1.26-.9,20,20,0,0,1,.72-4,20.29,20.29,0,0,0,.73-4l14.25-6.7,30.49-8.41Z" transform="translate(-181 -359.57)"/><path class="cls-1" d="M1270.53,537.5l-52.74,21.82,3.81-45.05,2.26-21.85,22.43-13.11,38.42-22.07L1262.77,441l-32,14.87-1,.35,7.25-42.35,8.2-3.22-2.92,26,2.88,3.61a35.93,35.93,0,0,1,.55-4.51q.54-3.43,1.08-7t1.08-7a37.49,37.49,0,0,0,.54-4.51,44.33,44.33,0,0,1,2.17-5.6c.72-1.66,1.31-2.94,1.77-3.86l.62-.29-1.31,10.11a6.5,6.5,0,0,1,1.81-1.81l1.8-1.8c.24-.49.66-1.45,1.27-2.89s1.2-2.95,1.8-4.51c.25-.66.5-1.3.75-1.93l36.09-16.67-27.41-17.57-100.73,41.22,27.75,18.59,4.43-1.73-8.93,46.79-31,15.55L1183.69,508l-1.32,7.17-11.2,63.87-50,24.53,47.89,20.18,55.41-32.42,46.14-23.1v7.15a30.89,30.89,0,0,1-.36,3.25q-.36,2.52-.54,5.6c-.12,2-.3,4-.54,5.77s-.36,2.83-.36,3.07a38.9,38.9,0,0,0-.72,5.06q-.37,3.6-.54,7.4t-.55,7a16.58,16.58,0,0,1-.72,4v9.74c.24,1,.54,2.05.9,3.25s.66,2.41.91,3.61c.23,1.45.48,2.89.72,4.34h1.8q.36-2.89.73-5.42c.23-1.44.47-2.89.72-4.33s.48-2.65.72-3.61q.36-4,1.26-12.1t1.63-16.6q.72-8.49,1.62-15.52c.6-4.7,1-7.64,1.26-8.85v-5.32c0-.48.42-1,1.27-1.63a4.63,4.63,0,0,1,2.71-.9l1.44-.87h1.81a10.68,10.68,0,0,0,.18,1.32c.11,1.08.3,2.35.54,3.79a30.33,30.33,0,0,0,.9,4,6.48,6.48,0,0,0,.9,2.17l1.81,1.8a17.59,17.59,0,0,0,.9-3.07,6.77,6.77,0,0,1,1.26-3.06,55,55,0,0,1,.73-5.78,54.76,54.76,0,0,0,.72-6.14l2.43-1.88.08,0Z" transform="translate(-181 -359.57)"/><path class="cls-1" d="M1389,376.42l-35.57,96.43-23.14,65.65-8.94-122.09-31.78-7.65,4.77,108.13,6.39,96.17,6.14,0-2.2,8-1.43.36,1.3.13h0l3.93,1.12v33.4l1.45-.73c1-.48,1.44-1,1.44-1.44q.72-9,.9-14.62t.54-10.47a37.69,37.69,0,0,1,.54-4.75l2.71.77v72l3.25-1.81,3.53-68.29,8.71,2.47,39.3-98.84,56.54-125.9Z" transform="translate(-181 -359.57)"/><path class="cls-1" d="M1808.94,454.22,1785.08,426l-7.74,3.46-3.86-5.76s-167.27,41.06-195,46.11l-33.36-82.93-25.74,7.5,2.28,8.14h-5.86l-5.41,77.56c-43.62,6-51.13,6.12-51.13,6.12l-5.87,18.56,1.48.88c1.54,1.59,2.83,4.77,3.38,5.14.24.49.33,2.48.57,2.72l1.08,1.08v19.5a18.81,18.81,0,0,0,.73,4.87c.47,1.8,1,2.71,1.44,2.71h1.44c.24-1.21.48-2.41.73-3.61s.47-2.29.72-3.25a12.43,12.43,0,0,0,.36-2.89,23.15,23.15,0,0,0,.72-3.25c.24-1.44.42-2.94.54-4.51s.3-3.07.54-4.52a21.37,21.37,0,0,1,.73-3.24h1.8a32.24,32.24,0,0,1,4.7,2.4l.72-1,.22,0,5.56,3.33h0l19.23,11.52-6.63,63.56,30.3-7.5,4.82-39.87,48.66,29.61h-.1l4.79,4.65c.24,1.93.56,9.19.8,13.64s.42,9.2.54,14.26.3,9.8.54,14.26.48,7.52.72,9.2a32.05,32.05,0,0,0,.37,3.79c.23,1.81.41,3.61.54,5.42s-2.35-2.48-2.11-.91a25.81,25.81,0,0,1,.37,3.43,11.45,11.45,0,0,0,.72,2.89q.72,2.16,1.44,2.52l2.53-9.74,2.64-51.44a3.29,3.29,0,0,0,1.63-.54,3.23,3.23,0,0,1,1.62-.54l1.81,1.8c0,.72,0,2,.18,4s.3,4,.54,6.14.48,4.15.72,6a14.13,14.13,0,0,0,.72,3.43c0,.72.06,1.74.18,3.07s.3,2.7.54,4.15.42,2.82.55,4.15.18,2.22.18,2.71a4.77,4.77,0,0,1,.9-2.17,4.81,4.81,0,0,0,.9-2.17q.72-.72,1.63-4.69a33.16,33.16,0,0,0,.9-5,30.62,30.62,0,0,1,.36-3.25c.24-1.69.42-3.43.54-5.24s.3-3.54.54-5.23a30.62,30.62,0,0,0,.36-3.25c.22,0,2.4-9.46,3.53-11.59l12.8-16.1-22.41-46.58-9.69-21.6c57-13,154-29.81,197.11-39l.41,34.9c0,.72.09,2.4.24,5.05s.37,5.53.64,8.66.56,6.13.83,9,.54,5,.79,6.49a55,55,0,0,0,.79,5.59,51.67,51.67,0,0,1,.79,5.58l3.21-3.64-.86-73.11,3.33-.71c.15,1,.31,2.18.5,3.56.39,3,.84,4.87,1.32,5.58a31.91,31.91,0,0,0,.79,5.05,31.27,31.27,0,0,1,.77,4.68l3.23-2.2-.19-15.52C1804.29,457.82,1807.14,454.6,1808.94,454.22Zm-264.42,19.35.27.76-.42.08Zm-9.06,41.56,3-7.67,4.28-.61c4.32-.63,8.67-1.32,13-2.07l7.94,15.55,7.56,15.38Z" transform="translate(-181 -359.57)"/><path class="cls-1" d="M1555.71,629.84c-56.79-27.55-113.42-38.73-113.42-38.73l-22,16,62.58,30.64,47.9,27.19,28.1-27.81-5.69-3.26Z" transform="translate(-181 -359.57)"/></g><g id="MAGENTA"><path class="cls-2" d="M1136.93,494.41l1.44-.72c1-.48,1.45-1,1.45-1.44q.72-9,.9-14.62c0-.89.06-1.76.1-2.62l3.69-5.11v65.31l3.25-1.81,3.74-73.16L1179,422.31l-24.33-17.25-26.73-18.94L1070,406.61,1044.83,416l-2.68,6.84-1.06-5.46-28.94,10.76,18.9,20.35,3.4-1-10.48,71-9.09,75.11L1000.38,619l.31-114.69,24.14-12.77-23.64-16.23,2-62.79,4.79-52.91-51.8,9.19-23.55,54.05-1,6.15-44,104.67-21.91,11.88-11.22-17.82-20.3-27.16,60.69-62.13L934.56,404l-42.84-31.8-88.56,23.06-43.39,9.17L764.3,401l-29.49-24.38-3.07,0-17.15-14.22L600.2,401.67l26.36,14.16,16.69-3.51V413l-9.16,64.2-7.6,62.63-11.85-8.26L561.9,553.39l3.82-45.06L568,486.48l22.44-13.11,38.42-22.07-21.94-16.24-32,14.87-1,.35,7.24-42.35,13.28-5.2L639.31,382l-27.4-17.57L511.18,405.63l27.75,18.59,4.42-1.73-8.92,46.8-30.95,15.54,24.33,17.25-1.32,7.17-11.2,63.87-45.48,22.31,1.54-9.75,10.89-4.17-8.59-10.86,3.61-22.88,25.65-155.39-35.23-14.12L444.36,524.09l-4.86,41L387.75,583.8l18.44-108.26,6.55-44.74L377.5,416.35,372.34,450l-22.26-.35L315,400.36,288.51,368.8,261,394.9l6.52,6.44L235,483.42l-6.06,14L227.19,494l-22,31.19,26.62,56.47,19,37.07c-3.19.48-6.25,1.06-9.2,1.76a34,34,0,0,0-5.11,1.74L204.15,630l-15,2.83-7.65,31.09a44.5,44.5,0,0,0,5.79-1.74q5.1-1.74,7.83-2.44,1.37-.35,8-1.58t14.14-3q8.86-1.77,19.08-3.87Q252,649.13,265,647l20.62-3.37q9.72-1.59,12.1-2.29a36.27,36.27,0,0,1,8-1.08l6.18-.38a11.85,11.85,0,0,1,2.11.61l.74.7c.74.7,1.12,1.17,1.12,1.42L316.94,683c.24,0,.54-.25.89-.74a1.52,1.52,0,0,1,1.24-.76c0-.48.12-2.17.41-5.06s.52-5.2.72-6.89q.32-1.46.75-5.43T322,656c.4-2.78.76-5.43,1.05-8s.54-4.41.75-5.62l1.81,0a39.81,39.81,0,0,0,.84,4.49A22.65,22.65,0,0,0,328,652l.74.7.74.71,1.77-1.5c.45-1,.82-3.15,1.09-6.53s.64-5.19,1.12-5.44c0-.24.44-.54,1.34-.91h0v0h0L349,611q-9.22-.63-17.75-.92-7.51-.29-15.18-.42t-12.46.25l7.73-19.49,57.81-119.91L351.27,587.1l11.31,8.12-6.81,3.11,29.47,19.95L436,598.86l-3.57,29.36,29.78,15.51,7-44.43,29.9,12.6c.06.87.11,1.8.16,2.8q.36,6.67.55,14.26t.54,14.26q.36,6.67.72,9.2a33.69,33.69,0,0,0,.36,3.79c.24,1.81.42,3.61.54,5.42s.3,3.48.54,5a25.81,25.81,0,0,1,.37,3.43,11.35,11.35,0,0,0,.72,2.89c.48,1.44,1,2.28,1.44,2.53l2.53-9.75V615.47l5.6,2.36,0,0c0,.47.09.92.14,1.4.24,2.17.48,4.15.73,6a13.64,13.64,0,0,0,.72,3.43c0,.72.05,1.74.18,3.07s.3,2.7.54,4.15.42,2.82.54,4.15.18,2.22.18,2.71a4.77,4.77,0,0,1,.9-2.17,4.91,4.91,0,0,0,.91-2.17q.72-.72,1.62-4.69a31.86,31.86,0,0,0,.9-5,29,29,0,0,1,.37-3.25c.23-1.69.41-3.43.54-5.24s.3-3.54.54-5.23c.14-1,.24-1.81.3-2.39l3.12-1.83a2.45,2.45,0,0,1,.55-.11l-.27-.06,42.88-25.07,55.76-27.92-3.56,29.3-29.52,26.45L623.76,626l30.56-24.41,113.47-89.42-17.55,98L780,626.07l19.33-92.78.06,0a4.18,4.18,0,0,1,1.08.76v27.16h3.25l.72-4.53a38.56,38.56,0,0,0,.54-4.15c.12-1.5.18-2.89.18-4.14a30,30,0,0,0,1.45-7,70,70,0,0,0,.72-7.36h4.33v82.24l1.81,1.51c0-.76.12-2.21.36-4.34s.41-4.34.54-6.6.3-4.47.54-6.6a26.86,26.86,0,0,1,.72-4.34q0-3.41.54-11.89t1.09-18.1q.54-9.63,1.08-17.92.14-2.1.24-3.87l.84,1.31c2.53,4,4.76,7.42,6.72,10.36a75.6,75.6,0,0,1,4,6.46q2.07,3.06,7.24,11.39T847.87,591q5.34,9,9.65,16.49t4.67,9.52l12.06-20.73,21.56-3.7,22.93-43.81,25.52-14.06,0,.29c.31,2.87.77,4.75,1.4,5.63a31.44,31.44,0,0,0,.92,3.7c.5,1.75.77,2.74.81,3l1.23.91,1.43-.22a8.7,8.7,0,0,1,.64-3,8.6,8.6,0,0,0,.54-3.74,27.73,27.73,0,0,1,.59-5.74c.44-2.74.74-4.56.9-5.48l.8-.44,1-.15,1.07-.16a1.07,1.07,0,0,1,.47.66l.1.71a52.36,52.36,0,0,0,1.94,6.83,56.6,56.6,0,0,1,1.89,6.47l1.42-.22a13.79,13.79,0,0,1,.41-3.34,12.81,12.81,0,0,0,.41-3.35,6.42,6.42,0,0,0,.82-3c.15-1.49.68-2.41,1.59-2.8l2.48,3.56,5.52,79.52,27.34,5.23-2.38,4.17,36.9,9,59.81-93.51,42.55-58.79ZM307.55,524.25l-33.38,64-17.27-34q-3.1-5.43-5.87-11.56-2.78-5.1-5.36-11.23t-5-11.91l19.07-5.92,21.48-57.45,10.74-29.06,40.89,46.82ZM821.76,423.84l.27-.06c0,1.22.08,2.92.17,5.1q.18,4.33.54,9.2t.9,9.39c.36,3,.67,5,.9,6a18.22,18.22,0,0,0,.91,4.51,20.58,20.58,0,0,1,.9,3.79c0-.48.06-1.38.18-2.71s.3-2.7.54-4.15.42-2.83.54-4.15.18-2.35.18-3.07a23.68,23.68,0,0,0,.72-4.33c.25-2.17.49-4.51.73-7s.42-4.93.54-7.22.18-3.91.18-4.87h1.8a14.55,14.55,0,0,0,.91,4.15,33.54,33.54,0,0,0,1.62,4.15,5.75,5.75,0,0,0,.9,1.8,5.61,5.61,0,0,1,.91,1.81q.36,1.08,1.8.36l1.45-.72-.69-15.61,35.91-7.88Q863.4,425,852.2,437q-9.48,10.31-20,21.62t-18.3,19.9l-4.09.37ZM674.6,405.64l38.16-8.08-37.23,48.68-1,1,7.26-38.94ZM656.76,555.19l5.89-40,25.89-7.32q5.1-1.74,10.56-3.14,4.75-1.38,10.55-3t11.58-3.32ZM777,461l-5.6,31.33-18.88-17.53L745,479.92,728.54,465.7l-43.95,10.84,65.79-64.88.08-.07L771,434.73l10.57-.75Zm25.27,58.53.6.88-.81.11Zm76,38.08-1.86,4.88-6.75-10.73Zm86.29-114.15,1,49.47-28.23,13.82Zm93.35,89.84,8-93.53,1.48-.41,2.59.94a9.55,9.55,0,0,0,3.07.72v53.43a14.13,14.13,0,0,1,1.08-4,14.26,14.26,0,0,0,1.09-4,21.35,21.35,0,0,0,1.26-5.78,21,21,0,0,1,1.26-5.77c0-1,.12-2.83.36-5.6s.42-5.59.54-8.48.3-5.6.55-8.12.36-4.27.36-5.24c.23,0,.54-.3.9-.9a1.52,1.52,0,0,1,1.26-.9,20,20,0,0,1,.72-4,20.29,20.29,0,0,0,.73-4l14.25-6.7,30.49-8.41Z" transform="translate(-181 -359.57)"/><path class="cls-2" d="M1271,527.5l-52.74,21.82,3.81-45.05,2.26-21.85,22.43-13.11,38.42-22.07L1263.27,431l-32,14.87-1,.35,7.25-42.35,8.2-3.22-2.92,26,2.88,3.61a35.93,35.93,0,0,1,.55-4.51q.54-3.43,1.08-7t1.08-7a37.49,37.49,0,0,0,.54-4.51,44.33,44.33,0,0,1,2.17-5.6c.72-1.66,1.31-2.94,1.77-3.86l.62-.29-1.31,10.11a6.5,6.5,0,0,1,1.81-1.81l1.8-1.8c.24-.49.66-1.45,1.27-2.89s1.2-2.95,1.8-4.51c.25-.66.5-1.3.75-1.93l36.09-16.67-27.41-17.57-100.73,41.22,27.75,18.59,4.43-1.73-8.93,46.79-31,15.55L1184.19,498l-1.32,7.17-11.2,63.87-50,24.53,47.89,20.18L1225,581.35l46.14-23.1v7.15a30.89,30.89,0,0,1-.36,3.25q-.36,2.52-.54,5.6c-.12,2-.3,4-.54,5.77s-.36,2.83-.36,3.07a38.9,38.9,0,0,0-.72,5.06q-.37,3.6-.54,7.4t-.55,7a16.58,16.58,0,0,1-.72,4v9.74c.24,1,.54,2.05.9,3.25s.66,2.41.91,3.61c.23,1.45.48,2.89.72,4.34h1.8q.36-2.89.73-5.42c.23-1.44.47-2.89.72-4.33s.48-2.65.72-3.61q.36-4,1.26-12.1t1.63-16.6q.72-8.49,1.62-15.52c.6-4.7,1-7.64,1.26-8.85v-5.32c0-.48.42-1,1.27-1.63a4.63,4.63,0,0,1,2.71-.9l1.44-.87h1.81a10.68,10.68,0,0,0,.18,1.32c.11,1.08.3,2.35.54,3.79a30.33,30.33,0,0,0,.9,4,6.48,6.48,0,0,0,.9,2.17l1.81,1.8a17.59,17.59,0,0,0,.9-3.07,6.77,6.77,0,0,1,1.26-3.06,55,55,0,0,1,.73-5.78,54.76,54.76,0,0,0,.72-6.14l2.43-1.88.08,0Z" transform="translate(-181 -359.57)"/><path class="cls-2" d="M1389.45,366.42l-35.57,96.43-23.14,65.65-8.94-122.09L1290,398.76l4.77,108.13,6.39,96.17,6.14,0-2.2,8-1.43.36,1.3.13h0l3.93,1.12v33.4l1.45-.73c1-.48,1.44-1,1.44-1.44q.72-9,.9-14.62t.54-10.47a37.69,37.69,0,0,1,.54-4.75l2.71.77v72l3.25-1.81,3.53-68.29,8.71,2.47,39.3-98.84,56.54-125.9Z" transform="translate(-181 -359.57)"/><path class="cls-2" d="M1809.44,444.22,1785.58,416l-7.74,3.46-3.86-5.76s-167.27,41.06-195,46.11l-33.36-82.93-25.74,7.5,2.28,8.14h-5.86l-5.41,77.56c-43.62,6-51.13,6.12-51.13,6.12l-5.87,18.56,1.48.88c1.54,1.59,2.83,4.77,3.38,5.14.24.49.33,2.48.57,2.72l1.08,1.08v19.5a18.81,18.81,0,0,0,.73,4.87c.47,1.8,1,2.71,1.44,2.71h1.44c.24-1.21.48-2.41.73-3.61s.47-2.29.72-3.25a12.43,12.43,0,0,0,.36-2.89,23.15,23.15,0,0,0,.72-3.25c.24-1.44.42-2.94.54-4.51s.3-3.07.54-4.52a21.37,21.37,0,0,1,.73-3.24h1.8a32.24,32.24,0,0,1,4.7,2.4l.72-1,.22,0,5.56,3.33h0l19.23,11.52L1494,586.3l30.3-7.5,4.82-39.87,48.66,29.61h-.1l4.79,4.65c.24,1.93.56,9.19.8,13.64s.42,9.2.54,14.26.3,9.8.54,14.26.48,7.52.72,9.2a32.05,32.05,0,0,0,.37,3.79c.23,1.81.41,3.61.54,5.42s-2.35-2.48-2.11-.91a25.81,25.81,0,0,1,.37,3.43,11.45,11.45,0,0,0,.72,2.89q.72,2.16,1.44,2.52l2.53-9.74,2.64-51.44a3.29,3.29,0,0,0,1.63-.54,3.23,3.23,0,0,1,1.62-.54l1.81,1.8c0,.72,0,2,.18,4s.3,4,.54,6.14.48,4.15.72,6a14.13,14.13,0,0,0,.72,3.43c0,.72.06,1.74.18,3.07s.3,2.7.54,4.15.42,2.82.55,4.15.18,2.22.18,2.71a4.77,4.77,0,0,1,.9-2.17,4.81,4.81,0,0,0,.9-2.17q.72-.72,1.63-4.69a33.16,33.16,0,0,0,.9-5,30.62,30.62,0,0,1,.36-3.25c.24-1.69.42-3.43.54-5.24s.3-3.54.54-5.23a30.62,30.62,0,0,0,.36-3.25c.22,0,2.4-9.46,3.53-11.59l12.8-16.1-22.41-46.58-9.69-21.6c57-13,154-29.81,197.11-39l.41,34.9c0,.72.09,2.4.24,5.05s.37,5.53.64,8.66.56,6.13.83,9,.54,5,.79,6.49a55,55,0,0,0,.79,5.59,51.67,51.67,0,0,1,.79,5.58l3.21-3.64-.86-73.11,3.33-.71c.15,1,.31,2.18.5,3.56.39,3,.84,4.87,1.32,5.58a31.91,31.91,0,0,0,.79,5.05,31.27,31.27,0,0,1,.77,4.68l3.23-2.2-.19-15.52C1804.79,447.82,1807.64,444.6,1809.44,444.22ZM1545,463.57l.27.76-.42.08ZM1536,505.13l3-7.67,4.28-.61c4.32-.63,8.67-1.32,13-2.07l7.94,15.55,7.56,15.38Z" transform="translate(-181 -359.57)"/><path class="cls-2" d="M1556.21,619.84c-56.79-27.55-113.42-38.73-113.42-38.73l-22,16,62.58,30.64,47.9,27.19,28.1-27.81-5.69-3.26Z" transform="translate(-181 -359.57)"/></g><g id="WHITE"><path class="cls-3" d="M335,644.25c-1,.39-1.43.7-1.42.94q-.72.38-1.12,5.45a23.93,23.93,0,0,1-1.09,6.53l-1.76,1.49-.75-.7-.74-.71a22.65,22.65,0,0,1-1.58-5.19,39,39,0,0,1-.84-4.49l-1.81,0c-.21,1.2-.46,3.08-.75,5.61s-.64,5.19-1.05,8-.76,5.49-1.05,8.15-.54,4.47-.75,5.44c-.2,1.68-.44,4-.72,6.88s-.42,4.58-.41,5.06a1.57,1.57,0,0,0-1.24.76c-.35.49-.65.74-.89.75l-1.08-40.42c0-.24-.38-.71-1.12-1.42l-.74-.7a16.85,16.85,0,0,0-3.09-.82c-1.58-.32-3.27-.69-5.09-1.13" transform="translate(-181 -359.57)"/><path class="cls-3" d="M311.44,595.64l-7.72,19.49q4.77-.36,12.45-.24t15.18.41q8.53.3,17.75.92l-14.16,28.06q-9.21.06-16.71.45c-4.32.25-8.48.5-12.45.76a35.84,35.84,0,0,0-8,1.07q-2.38.69-12.1,2.29t-20.62,3.37q-13,2.13-28.63,4.27-10.23,2.12-19.08,3.87-7.5,1.75-14.14,3t-8,1.58q-2.73.71-7.83,2.44a43,43,0,0,1-5.79,1.74L189.22,638l15-2.82,32.36-7.71a34.43,34.43,0,0,1,5.11-1.74c2.95-.7,6-1.28,9.2-1.76l-19-37.07-26.62-56.47,22-31.18,1.72,3.4,6.06-14,32.59-82.08-6.53-6.44L288.58,374,315,405.58l35.11,49.26,31.73.48-5.76,6.18Zm-3.82-66.16,25.28-50.31L292,432.34,281.27,461.4l-21.48,57.45-19.07,5.92q2.42,5.79,5,11.91t5.36,11.23q2.76,6.12,5.87,11.56l17.27,34Z" transform="translate(-181 -359.57)"/><path class="cls-3" d="M482.31,586.74l-10.89,4.16L462.23,649l-29.78-15.51L436,604.08,385.31,623.5l-29.47-20,6.81-3.11-11.31-8.12,26.24-170.75L412.81,436l-6.55,44.73L387.82,589l51.75-18.75,4.86-41,23.32-145.82L503,397.6,477.33,553l-3.61,22.88Z" transform="translate(-181 -359.57)"/><path class="cls-3" d="M526.05,615.77a7.73,7.73,0,0,0-1.81.54,7.71,7.71,0,0,1-1.8.54,30.62,30.62,0,0,1-.36,3.25c-.24,1.69-.42,3.43-.54,5.24s-.31,3.54-.54,5.23a29,29,0,0,0-.37,3.25,31.86,31.86,0,0,1-.9,5c-.6,2.65-1.14,4.21-1.62,4.7a5,5,0,0,1-.9,2.16,4.7,4.7,0,0,0-.91,2.17c0-.49-.06-1.39-.18-2.71s-.3-2.71-.54-4.15-.42-2.83-.54-4.15-.18-2.35-.18-3.07a13.64,13.64,0,0,1-.72-3.43c-.25-1.81-.49-3.79-.73-6s-.42-4.21-.54-6.13-.18-3.25-.18-4l-1.8-1.8a3.23,3.23,0,0,0-1.63.54,3.23,3.23,0,0,1-1.62.54V671l-2.53,9.75c-.48-.24-1-1.08-1.44-2.53a11.35,11.35,0,0,1-.72-2.89,26,26,0,0,0-.37-3.43c-.24-1.56-.42-3.24-.54-5s-.3-3.61-.54-5.41a33.81,33.81,0,0,1-.36-3.8q-.36-2.52-.72-9.2t-.54-14.26q-.19-7.57-.54-14.26t-.73-9.57" transform="translate(-181 -359.57)"/><path class="cls-3" d="M614.72,536.79l25.7,17.92-71.76,35.93-55.41,32.41-47.89-20.17,50-24.54,11.2-63.87,1.32-7.17-24.33-17.25,30.95-15.54,8.92-46.8L539,429.45l-27.75-18.6L612,369.63l27.41,17.57L594.48,408l-13.27,5.2L574,455.5l1-.35,32-14.87,21.94,16.24L590.48,478.6,568,491.7l-2.25,21.85L562,558.61Z" transform="translate(-181 -359.57)"/><path class="cls-3" d="M781.37,506.76l-127,100.06-30.56,24.42-32.49-12.77L620.86,592l13.31-109.6,9.16-64.2v-.68l-16.69,3.52-26.36-14.17,114.39-39.26,17.15,14.22,3.07,0,29.49,24.39-13.92,10.66-65.79,64.89,44-10.85,16.46,14.23,7.47-5.17Zm-60.07-3q-5.79,1.74-11.58,3.31t-10.55,3q-5.46,1.39-10.56,3.13l-25.88,7.33-5.9,39.95Zm-46.63-92.86,7.18,2.69-7.26,38.94,1-1,37.23-48.68Z" transform="translate(-181 -359.57)"/><path class="cls-3" d="M839.92,418.75l-1.2,6.18.7,16-1.45.72c-1,.49-1.56.36-1.8-.36a5.51,5.51,0,0,0-.91-1.8,5.86,5.86,0,0,1-.9-1.81,33.54,33.54,0,0,1-1.62-4.15,14.55,14.55,0,0,1-.91-4.15H830c0,1-.06,2.59-.18,4.87s-.3,4.69-.54,7.22-.48,4.88-.72,7a24.14,24.14,0,0,1-.73,4.33c0,.73-.05,1.75-.18,3.07s-.3,2.71-.54,4.15-.42,2.83-.54,4.15-.18,2.23-.18,2.71a20.58,20.58,0,0,0-.9-3.79,18.22,18.22,0,0,1-.91-4.51c-.23-1-.54-2.95-.9-6s-.66-6.13-.9-9.38-.42-6.32-.54-9.21-.18-4.93-.18-6.14" transform="translate(-181 -359.57)"/><path class="cls-3" d="M894.93,443.62l-60.69,62.13,20.3,27.17,31,49.27-23.29,40.06q-.36-2-4.67-9.52t-9.65-16.49q-5.36-9-10.51-17.33t-7.24-11.39a74.27,74.27,0,0,0-4-6.45c-2-2.94-4.19-6.4-6.72-10.37s-5.28-8.21-8.27-12.74-6-9-9-13.25l-22.2,106.58-29.78-15.85L777,466.18l4.61-27-10.57.75-24.39-27.48,56.56-12,88.56-23.07,42.85,31.81ZM814,483.7q7.78-8.58,18.3-19.91t20-21.61q11.19-12,22.37-24.71l-52.81,11.59-11.94,55Z" transform="translate(-181 -359.57)"/><path class="cls-3" d="M819,541.57q0,3.39-.54,11.69t-1.08,17.92q-.54,9.62-1.09,18.11t-.54,11.88a26.86,26.86,0,0,0-.72,4.34c-.24,2.13-.42,4.34-.54,6.6s-.3,4.46-.54,6.6-.36,3.59-.36,4.34l-1.81-1.51V539.3h-4.33a70,70,0,0,1-.72,7.36,30,30,0,0,1-1.45,7c0,1.25-.06,2.64-.18,4.15a38.56,38.56,0,0,1-.54,4.15l-.72,4.52h-3.25V539.3a4,4,0,0,0-1.08-.75,6.13,6.13,0,0,0-1.81-.76L800.25,526l33.85-4.74-10.88,18.32Z" transform="translate(-181 -359.57)"/><path class="cls-3" d="M968.36,523.5,977,535.34c-2.45-.12-9,4.55-9.77,4.66l-2.48-3.56c-.91.39-1.44,1.32-1.58,2.8a6.48,6.48,0,0,1-.83,3,12.81,12.81,0,0,1-.41,3.35,13.86,13.86,0,0,0-.41,3.35l-1.42.21a56.6,56.6,0,0,0-1.89-6.47,49.78,49.78,0,0,1-1.93-6.83l-.11-.71a1.07,1.07,0,0,0-.47-.66l-1.07.16-1.78.27c-.14.75-.45,2.68-1,5.8a27.75,27.75,0,0,0-.59,5.75,8.58,8.58,0,0,1-.54,3.73,8.7,8.7,0,0,0-.64,3l-1.43.22-1.23-.91c0-.24-.31-1.23-.81-3a31,31,0,0,1-.92-3.7q-.93-1.3-1.4-5.63T943,534.61Z" transform="translate(-181 -359.57)"/><path class="cls-3" d="M1000.76,509.49l-.31,115.32-27.67-5.29-6.37-91.73L918.81,554l-22.93,43.81-33.06,5.67,15.45-40.7-15.42-10.48,24.82-13.46,44.05-104.67,1-6.15,23.55-54,51.8-9.19-4.79,52.91-2,62.79,23.64,16.23Zm-35.21-11.38-1-49.46-27.24,63.28Z" transform="translate(-181 -359.57)"/><path class="cls-3" d="M1099,435.49,1083.11,443a19.91,19.91,0,0,1-.72,4,19.53,19.53,0,0,0-.73,4,1.52,1.52,0,0,0-1.26.9c-.36.61-.66.9-.9.9,0,1-.13,2.71-.36,5.24s-.43,5.23-.54,8.12-.31,5.72-.55,8.49-.36,4.63-.36,5.59a21.06,21.06,0,0,0-1.26,5.78,20.86,20.86,0,0,1-1.26,5.77,14.26,14.26,0,0,1-1.09,4,14.08,14.08,0,0,0-1.08,4V446.21a9.62,9.62,0,0,1-3.07-.73c-1.32-.47-2.65-1-4-1.44" transform="translate(-181 -359.57)"/><path class="cls-3" d="M1151.8,461l-4,77.62-3.25,1.81V465.7l-1.44.72a1,1,0,0,1-.72.36.33.33,0,0,0-.37.36c-.24.25-.48,2-.72,5.24s-.42,6.74-.54,10.47-.42,8.61-.9,14.62c0,.48-.49,1-1.45,1.44l-1.44.73V465.7" transform="translate(-181 -359.57)"/><path class="cls-3" d="M1179,427.53,1094.45,544.4l-59.81,93.51-36.9-9L1015,598.79l9.08-75.11,10.48-71-3.4,1-18.89-20.35,28.93-10.75,1.06,5.45,2.68-6.84,25.19-9.37L1128,391.34l26.73,18.94Zm-51.17.32-62,17.1-7.95,93.53Z" transform="translate(-181 -359.57)"/><path class="cls-3" d="M1248.28,383.19,1262,394.34c-.24.48-.67,1.44-1.26,2.89s-1.21,2.94-1.81,4.51-1.21,3.07-1.8,4.51-1,2.4-1.27,2.89l-1.8,1.8a6.5,6.5,0,0,0-1.81,1.81l1.45-11.19a41,41,0,0,0-2.53,5.23,44.33,44.33,0,0,0-2.17,5.6,37.49,37.49,0,0,1-.54,4.51c-.36,2.29-.72,4.63-1.08,7s-.72,4.75-1.08,7a38,38,0,0,0-.55,4.51l-2.88-3.61,3.25-28.88c-.25,0-1.69.18-4.34.54a47.22,47.22,0,0,1-5.41.55,17.66,17.66,0,0,0-1.81-2.53Z" transform="translate(-181 -359.57)"/><path class="cls-3" d="M1296.77,550.66l-2.48,1.92a52.51,52.51,0,0,1-.72,6.13,55.35,55.35,0,0,0-.73,5.78,6.77,6.77,0,0,0-1.26,3.07,17.88,17.88,0,0,1-.9,3.07l-1.81-1.81a6.48,6.48,0,0,1-.9-2.17,32,32,0,0,1-.9-4c-.24-1.44-.42-2.7-.54-3.79a10.89,10.89,0,0,1-.18-1.31h-1.81l-1.44.86a4.58,4.58,0,0,0-2.71.91c-.85.6-1.26,1.14-1.26,1.62v5.32c-.25,1.21-.67,4.15-1.27,8.85s-1.14,9.86-1.62,15.52-1,11.19-1.63,16.61-1,9.44-1.26,12.09c-.24,1-.49,2.17-.72,3.61s-.49,2.89-.72,4.33q-.37,2.52-.73,5.42h-1.8c-.24-1.45-.49-2.89-.72-4.33-.25-1.21-.54-2.41-.91-3.61s-.66-2.29-.9-3.25v-9.75a16.58,16.58,0,0,0,.72-4c.24-2.17.42-4.51.55-7s.29-5,.54-7.4a38.9,38.9,0,0,1,.72-5.06q0-.36.36-3.06t.54-5.78c.12-2.05.3-3.91.54-5.6a30.81,30.81,0,0,0,.36-3.24v-9.75a23,23,0,0,0-3.79.54c-1.8.36-3.73.78-5.77,1.26s-4,.91-6,1.27" transform="translate(-181 -359.57)"/><path class="cls-3" d="M1271.11,532.73l25.69,17.92L1225,586.58,1169.63,619l-47.89-20.17,50-24.54,11.2-63.87,1.32-7.17L1159.93,486l31-15.54,8.92-46.8-4.43,1.73-27.75-18.59,100.74-41.22,27.4,17.57-44.91,20.75-13.27,5.2-7.25,42.35,1-.35,32-14.87,21.94,16.24-38.42,22.08-22.43,13.1-2.26,21.85-3.81,45.06Z" transform="translate(-181 -359.57)"/><path class="cls-3" d="M1325.6,611.23c-1,1.2-1.57,1.93-1.81,2.16l-4,76.9-3.25,1.8V617.36l-1.44.73a1.06,1.06,0,0,1-.72.36.31.31,0,0,0-.36.36c-.25.24-.49,2-.72,5.23s-.43,6.74-.55,10.47-.42,8.61-.9,14.62c0,.49-.48,1-1.44,1.45l-1.45.72V617.36a43.31,43.31,0,0,0-5.23-.72" transform="translate(-181 -359.57)"/><path class="cls-3" d="M1427.9,399.72l-56.54,125.9-39.3,98.85-27-7.68,2.33-8.55-6.14,0-6.39-96.17L1290.09,404l31.78,7.65,8.94,122.08L1354,468.07l35.57-96.43Z" transform="translate(-181 -359.57)"/><path class="cls-3" d="M1610.3,577c-1,.36-3.62,12-3.86,12a30.62,30.62,0,0,1-.36,3.25c-.24,1.69-.42,3.43-.54,5.24s-.3,3.54-.54,5.23a30.62,30.62,0,0,0-.36,3.25,33.16,33.16,0,0,1-.9,5c-.61,2.65-1.15,4.21-1.63,4.7a4.79,4.79,0,0,1-.9,2.16,4.77,4.77,0,0,0-.9,2.17c0-.49-.07-1.39-.18-2.71s-.31-2.71-.54-4.15-.43-2.83-.55-4.15-.18-2.35-.18-3.07a14.13,14.13,0,0,1-.72-3.43c-.24-1.81-.48-3.79-.72-6s-.42-4.2-.54-6.13-.18-3.25-.18-4l-1.81-1.81a3.23,3.23,0,0,0-1.62.54,3.29,3.29,0,0,1-1.63.54L1589,637.16l-2.53,9.75c-.48-.25-1-1.09-1.44-2.53a11.35,11.35,0,0,1-.72-2.89,27.15,27.15,0,0,0-.36-3.43c-.25-1.57,2.22,2.72,2.1.91s-.31-3.61-.54-5.41a31.52,31.52,0,0,1-.36-3.8q-.37-2.52-.73-9.2t-.54-14.26q-.18-7.57-.54-14.26c-.24-4.45-.56-11.71-.8-13.64l-4.79-4.65" transform="translate(-181 -359.57)"/><path class="cls-3" d="M1809.51,449.44c-1.8.38-4.65,3.6-5.13,3.61l.18,15.52-3.23,2.2a30.12,30.12,0,0,0-.77-4.68,30.25,30.25,0,0,1-.78-5c-.49-.71-.94-2.57-1.33-5.58s-.72-5.1-1-6.3l-2.89,0,.9,76.53-3.21,3.65a51.37,51.37,0,0,0-.79-5.59,50.9,50.9,0,0,1-.78-5.59q-.39-2.16-.8-6.49c-.27-2.88-.55-5.89-.83-9s-.49-6-.64-8.66-.23-4.33-.24-5l-.58-49.46" transform="translate(-181 -359.57)"/><path class="cls-3" d="M1809.51,449.44l-23.86-28.19-7.74,3.45-3.86-5.76s-167.27,41.06-195,46.11l-33.36-82.92L1520,389.62l2.28,8.15h-5.86L1511,475.32c-43.62,6-51.13,6.12-51.13,6.12L1454,500l46.68,28-6.63,63.56,30.3-7.49,4.82-39.88,72.25,44,21.33-26.83-22.41-46.58-9.69-21.59C1665.6,476.06,1809.51,449.44,1809.51,449.44Zm-264.42,19.35.27.76-.42.09Zm19.15,46.77,7.56,15.37L1536,510.35l3-7.67c1.42-.19,2.85-.4,4.28-.61q6.49-.94,13-2.07Z" transform="translate(-181 -359.57)"/><path class="cls-3" d="M1481.47,516.44a13.7,13.7,0,0,0-5.78-3.37l-.71,1a33.89,33.89,0,0,0-4.71-2.4h-1.8a21.27,21.27,0,0,0-.73,3.25c-.24,1.44-.42,3-.54,4.51s-.3,3.07-.54,4.51a22.82,22.82,0,0,1-.72,3.25,12.36,12.36,0,0,1-.36,2.89c-.24,1-.49,2.05-.72,3.25s-.49,2.41-.73,3.61h-1.44c-.48,0-1-.9-1.44-2.71a18.75,18.75,0,0,1-.73-4.87v-19.5l-1.08-1.08c-.24-.24-.33-2.23-.57-2.72-.72-.48-2.69-5.78-4.85-6l6.53-3,18.62,10.86Z" transform="translate(-181 -359.57)"/><path class="cls-3" d="M1553.75,629.06l2.53-4c-56.79-27.55-113.42-38.73-113.42-38.73l-22,16,62.57,30.64,47.9,27.18,28.11-27.81Z" transform="translate(-181 -359.57)"/></g></svg>